<svg xmlns="http://www.w3.org/2000/svg" xmlns:xlink="http://www.w3.org/1999/xlink" width="1450" height="928.4"><rect width="1450" height="928.4" rx="5" ry="5" class="a"/><svg y="0%" x="0%"><circle cx="20" cy="20" r="6" fill="#ff5f58"/><circle cx="40" cy="20" r="6" fill="#ffbd2e"/><circle cx="60" cy="20" r="6" fill="#18c132"/></svg><svg height="868.4" viewBox="0 0 141 86.84" width="1410" x="15" xmlns="http://www.w3.org/2000/svg" xmlns:xlink="http://www.w3.org/1999/xlink" y="50"><style>@keyframes o{0%{transform:translateX(0)}5.65%{transform:translateX(-141px)}5.66%{transform:translateX(-282px)}5.77%{transform:translateX(-705px)}7.53%{transform:translateX(-846px)}8.08%{transform:translateX(-987px)}8.66%{transform:translateX(-1128px)}9.75%{transform:translateX(-1269px)}12.73%{transform:translateX(-1410px)}12.74%{transform:translateX(-1692px)}13.1%{transform:translateX(-1833px)}13.11%{transform:translateX(-2115px)}13.2%{transform:translateX(-2397px)}23.53%{transform:translateX(-2538px)}24.01%{transform:translateX(-2679px)}24.31%{transform:translateX(-2820px)}25.63%{transform:translateX(-2961px)}26.06%{transform:translateX(-3102px)}27.33%{transform:translateX(-3384px)}27.34%{transform:translateX(-3807px)}27.49%{transform:translateX(-4089px)}35.11%{transform:translateX(-4230px)}35.5%{transform:translateX(-4371px)}36.1%{transform:translateX(-4512px)}36.48%{transform:translateX(-4653px)}37.89%{transform:translateX(-4794px)}40.51%{transform:translateX(-5217px)}44.92%{transform:translateX(-5640px)}45.04%{transform:translateX(-5922px)}48.4%{transform:translateX(-6063px)}48.92%{transform:translateX(-6204px)}49.31%{transform:translateX(-6345px)}49.77%{transform:translateX(-6486px)}50.46%{transform:translateX(-6627px)}51.42%{transform:translateX(-7050px)}51.44%{transform:translateX(-7191px)}51.45%{transform:translateX(-7473px)}51.56%{transform:translateX(-7755px)}54.39%{transform:translateX(-7896px)}57.19%{transform:translateX(-8037px)}59.36%{transform:translateX(-8178px)}60.42%{transform:translateX(-8319px)}61.13%{transform:translateX(-8460px)}61.41%{transform:translateX(-8601px)}62.06%{transform:translateX(-8742px)}63.05%{transform:translateX(-9165px)}66.7%{transform:translateX(-9306px)}67.23%{transform:translateX(-9447px)}69.07%{transform:translateX(-9588px)}69.38%{transform:translateX(-9729px)}70.58%{transform:translateX(-9870px)}72.7%{transform:translateX(-10011px)}73.08%{transform:translateX(-10152px)}73.45%{transform:translateX(-10293px)}74.04%{transform:translateX(-10434px)}75.69%{transform:translateX(-10716px)}75.7%{transform:translateX(-10998px)}75.84%{transform:translateX(-11280px)}80.92%{transform:translateX(-11421px)}82.29%{transform:translateX(-11562px)}83.8%{transform:translateX(-11844px)}83.81%{transform:translateX(-11985px)}83.83%{transform:translateX(-12408px)}83.98%{transform:translateX(-12690px)}86.14%{transform:translateX(-12831px)}86.89%{transform:translateX(-12972px)}88.43%{transform:translateX(-13113px)}89.22%{transform:translateX(-13254px)}90.56%{transform:translateX(-13395px)}92.14%{transform:translateX(-13818px)}92.5%{transform:translateX(-13959px)}92.51%{transform:translateX(-14100px)}92.52%{transform:translateX(-14523px)}92.61%{transform:translateX(-14664px)}92.62%{transform:translateX(-14805px)}98.07%{transform:translateX(-14946px)}98.71%{transform:translateX(-15087px)}98.88%{transform:translateX(-15228px)}99.34%{transform:translateX(-15369px)}to{transform:translateX(-15792px)}}.a{fill:#282d35}.g{fill:#b9bfca}.j{fill:#e88388}.k{fill:#b9bfca;font-weight:700}.l{fill:#b9c0cb}</style><g font-size="1.67" font-family="Monaco,Consolas,Menlo,'Bitstream Vera Sans Mono','Powerline Symbols',monospace"><defs><symbol id="1"><text y="1.67" fill="#66c2cd">yansong</text><text x="8.016" y="1.67" class="g">at</text><text x="11.022" y="1.67" fill="#a8cc8c">Yansongs-laptop.local</text><text x="33.066" y="1.67" class="g">in</text><text x="36.072" y="1.67" fill="#dbab79" font-weight="700">[~]</text></symbol><symbol id="2"><text y="1.67" class="j">20:53:49</text><text x="9.018" y="1.67" class="k">›</text></symbol><symbol id="3"><text y="1.67" class="j">20:53:49</text><text x="9.018" y="1.67" class="k">›</text><text x="11.022" y="1.67" class="l">curl</text><text x="16.032" y="1.67" class="l">cip.cc</text></symbol><symbol id="4"><text y="1.67" class="l">IP</text><text x="8.016" y="1.67" class="l">:</text><text x="10.02" y="1.67" class="l">180.160.8.172</text></symbol><symbol id="5"><text y="1.67" class="l">地址</text><text x="8.016" y="1.67" class="l">:</text><text x="10.02" y="1.67" class="l">中国</text><text x="14.028" y="1.67" class="l">上海</text></symbol><symbol id="6"><text y="1.67" class="l">运营商</text><text x="8.016" y="1.67" class="l">:</text><text x="10.02" y="1.67" class="l">电信</text></symbol><symbol id="7"><text y="1.67" class="l">数据二</text><text x="8.016" y="1.67" class="l">:</text><text x="10.02" y="1.67" class="l">上海市</text><text x="14.028" y="1.67" class="l">|</text><text x="16.032" y="1.67" class="l">电信</text></symbol><symbol id="8"><text y="1.67" class="l">数据三</text><text x="8.016" y="1.67" class="l">:</text><text x="10.02" y="1.67" class="l">中国上海上海市</text><text x="18.036" y="1.67" class="l">|</text><text x="20.04" y="1.67" class="l">电信</text></symbol><symbol id="9"><text y="1.67" class="l">URL</text><text x="8.016" y="1.67" class="l">:</text><text x="10.02" y="1.67" class="l">http://www.cip.cc/180.160.8.172</text></symbol><symbol id="10"><text y="1.67" class="j">20:53:52</text><text x="9.018" y="1.67" class="k">›</text></symbol><symbol id="11"><text y="1.67" class="j">20:53:52</text><text x="9.018" y="1.67" class="k">›</text><text x="11.022" y="1.67" class="l">proxy</text></symbol><symbol id="12"><text y="1.67" class="j">20:53:56</text><text x="9.018" y="1.67" class="k">›</text></symbol><symbol id="13"><text y="1.67" class="j">20:53:56</text><text x="9.018" y="1.67" class="k">›</text><text x="11.022" y="1.67" class="l">curl</text><text x="16.032" y="1.67" class="l">cip.cc</text></symbol><symbol id="14"><text y="1.67" class="l">IP</text><text x="8.016" y="1.67" class="l">:</text><text x="10.02" y="1.67" class="l">149.248.5.9</text></symbol><symbol id="15"><text y="1.67" class="l">地址</text><text x="8.016" y="1.67" class="l">:</text><text x="10.02" y="1.67" class="l">加拿大</text><text x="15.03" y="1.67" class="l">安大略省</text><text x="21.042" y="1.67" class="l">多伦多</text></symbol><symbol id="16"><text y="1.67" class="l">数据二</text><text x="8.016" y="1.67" class="l">:</text><text x="10.02" y="1.67" class="l">欧洲</text></symbol><symbol id="17"><text y="1.67" class="l">数据三</text><text x="8.016" y="1.67" class="l">:</text><text x="10.02" y="1.67" class="l">美国新泽西</text></symbol><symbol id="18"><text y="1.67" class="l">URL</text><text x="8.016" y="1.67" class="l">:</text><text x="10.02" y="1.67" class="l">http://www.cip.cc/149.248.5.9</text></symbol><symbol id="19"><text y="1.67" class="j">20:54:01</text><text x="9.018" y="1.67" class="k">›</text></symbol><symbol id="20"><text y="1.67" class="j">20:54:01</text><text x="9.018" y="1.67" class="k">›</text><text x="11.022" y="1.67" class="l">clear</text></symbol><symbol id="21"><text y="1.67" class="j">20:54:02</text><text x="9.018" y="1.67" class="k">›</text></symbol><symbol id="22"><text y="1.67" class="j">20:54:02</text><text x="9.018" y="1.67" class="k">›</text><text x="11.022" y="1.67" class="l">unp</text></symbol><symbol id="23"><text y="1.67" class="l">unpack200</text><text x="11.022" y="1.67" class="l">unproxy</text></symbol><symbol id="24"><text y="1.67" class="j">20:54:02</text><text x="9.018" y="1.67" class="k">›</text><text x="11.022" y="1.67" class="l">unpp</text></symbol><symbol id="25"><text y="1.67" class="j">20:54:02</text><text x="9.018" y="1.67" class="k">›</text><text x="11.022" y="1.67" class="l">unproxy</text></symbol><symbol id="26"><text y="1.67" class="j">20:54:09</text><text x="9.018" y="1.67" class="k">›</text></symbol><symbol id="27"><text y="1.67" class="j">20:54:09</text><text x="9.018" y="1.67" class="k">›</text><text x="11.022" y="1.67" class="l">clear</text></symbol><symbol id="28"><text y="1.67" class="j">20:54:11</text><text x="9.018" y="1.67" class="k">›</text></symbol><symbol id="29"><text y="1.67" class="j">20:54:11</text><text x="9.018" y="1.67" class="k">›</text><text x="11.022" y="1.67" class="l">c</text></symbol><symbol id="30"><text y="1.67" class="j">20:54:11</text><text x="9.018" y="1.67" class="k">›</text><text x="11.022" y="1.67" class="l">curl</text><text x="16.032" y="1.67" class="l">cip.cc</text></symbol><symbol id="31"><text y="1.67" class="j">20:54:14</text><text x="9.018" y="1.67" class="k">›</text></symbol><symbol id="32"><text y="1.67" class="j">20:54:14</text><text x="9.018" y="1.67" class="k">›</text><text x="11.022" y="1.67" class="l">exit</text></symbol><symbol id="a"><path fill="transparent" d="M0 0h141v41H0z"/></symbol><symbol id="b"><path fill="#6f7683" d="M0 0h1.102v2.171H0z"/></symbol></defs><path class="a" d="M0 0h141v86.84H0z"/><g style="animation-duration:28.147741s;animation-iteration-count:infinite;animation-name:o;animation-timing-function:steps(1,end)"><svg width="15933"><svg><use xlink:href="#a"/><use xlink:href="#b" x="-.004"/></svg><svg x="141"><use xlink:href="#a"/><use xlink:href="#b" x="-.004"/></svg><svg x="282"><use xlink:href="#a"/><use xlink:href="#b" x="-.004"/></svg><svg x="423"><use xlink:href="#a"/><use xlink:href="#b" x="10.996" y="4.317"/><use xlink:href="#1" y="2.171"/><use xlink:href="#2" y="4.342"/></svg><svg x="564"><use xlink:href="#a"/><use xlink:href="#b" x="10.996" y="4.317"/><use xlink:href="#1" y="2.171"/><use xlink:href="#2" y="4.342"/></svg><svg x="705"><use xlink:href="#a"/><use xlink:href="#b" x="10.996" y="4.317"/><use xlink:href="#1" y="2.171"/><use xlink:href="#2" y="4.342"/></svg><svg x="846"><use xlink:href="#a"/><use xlink:href="#b" x="11.996" y="4.317"/><use xlink:href="#1" y="2.171"/><text y="6.012" class="j">20:53:49</text><text x="9.018" y="6.012" class="k">›</text><text x="11.022" y="6.012" class="l">c</text></svg><svg x="987"><use xlink:href="#a"/><use xlink:href="#b" x="12.996" y="4.317"/><use xlink:href="#1" y="2.171"/><text y="6.012" class="j">20:53:49</text><text x="9.018" y="6.012" class="k">›</text><text x="11.022" y="6.012" class="l">cu</text></svg><svg x="1128"><use xlink:href="#a"/><use xlink:href="#b" x="13.996" y="4.317"/><use xlink:href="#1" y="2.171"/><text y="6.012" class="j">20:53:49</text><text x="9.018" y="6.012" class="k">›</text><text x="11.022" y="6.012" class="l">cur</text></svg><svg x="1269"><use xlink:href="#a"/><use xlink:href="#b" x="21.996" y="4.317"/><use xlink:href="#1" y="2.171"/><use xlink:href="#3" y="4.342"/></svg><svg x="1410"><use xlink:href="#a"/><use xlink:href="#b" x="21.996" y="4.317"/><use xlink:href="#1" y="2.171"/><use xlink:href="#3" y="4.342"/></svg><svg x="1551"><use xlink:href="#a"/><use xlink:href="#b" x="-.004" y="6.488"/><use xlink:href="#1" y="2.171"/><use xlink:href="#3" y="4.342"/></svg><svg x="1692"><use xlink:href="#a"/><use xlink:href="#b" x="-.004" y="6.488"/><use xlink:href="#1" y="2.171"/><use xlink:href="#3" y="4.342"/></svg><svg x="1833"><use xlink:href="#a"/><use xlink:href="#b" x="-.004" y="26.027"/><use xlink:href="#1" y="2.171"/><use xlink:href="#3" y="4.342"/><use xlink:href="#4" y="6.513"/><use xlink:href="#5" y="8.684"/><use xlink:href="#6" y="10.855"/><use xlink:href="#7" y="15.197"/><use xlink:href="#8" y="19.539"/><use xlink:href="#9" y="23.881"/></svg><svg x="1974"><use xlink:href="#a"/><use xlink:href="#b" x="-.004" y="26.027"/><use xlink:href="#1" y="2.171"/><use xlink:href="#3" y="4.342"/><use xlink:href="#4" y="6.513"/><use xlink:href="#5" y="8.684"/><use xlink:href="#6" y="10.855"/><use xlink:href="#7" y="15.197"/><use xlink:href="#8" y="19.539"/><use xlink:href="#9" y="23.881"/></svg><svg x="2115"><use xlink:href="#a"/><use xlink:href="#b" x="-.004" y="26.027"/><use xlink:href="#1" y="2.171"/><use xlink:href="#3" y="4.342"/><use xlink:href="#4" y="6.513"/><use xlink:href="#5" y="8.684"/><use xlink:href="#6" y="10.855"/><use xlink:href="#7" y="15.197"/><use xlink:href="#8" y="19.539"/><use xlink:href="#9" y="23.881"/></svg><svg x="2256"><use xlink:href="#a"/><use xlink:href="#b" x="10.996" y="30.369"/><use xlink:href="#1" y="2.171"/><use xlink:href="#3" y="4.342"/><use xlink:href="#4" y="6.513"/><use xlink:href="#5" y="8.684"/><use xlink:href="#6" y="10.855"/><use xlink:href="#7" y="15.197"/><use xlink:href="#8" y="19.539"/><use xlink:href="#9" y="23.881"/><use xlink:href="#1" y="28.223"/><use xlink:href="#10" y="30.394"/></svg><svg x="2397"><use xlink:href="#a"/><use xlink:href="#b" x="10.996" y="30.369"/><use xlink:href="#1" y="2.171"/><use xlink:href="#3" y="4.342"/><use xlink:href="#4" y="6.513"/><use xlink:href="#5" y="8.684"/><use xlink:href="#6" y="10.855"/><use xlink:href="#7" y="15.197"/><use xlink:href="#8" y="19.539"/><use xlink:href="#9" y="23.881"/><use xlink:href="#1" y="28.223"/><use xlink:href="#10" y="30.394"/></svg><svg x="2538"><use xlink:href="#a"/><use xlink:href="#b" x="11.996" y="30.369"/><use xlink:href="#1" y="2.171"/><use xlink:href="#3" y="4.342"/><use xlink:href="#4" y="6.513"/><use xlink:href="#5" y="8.684"/><use xlink:href="#6" y="10.855"/><use xlink:href="#7" y="15.197"/><use xlink:href="#8" y="19.539"/><use xlink:href="#9" y="23.881"/><use xlink:href="#1" y="28.223"/><text y="32.064" class="j">20:53:52</text><text x="9.018" y="32.064" class="k">›</text><text x="11.022" y="32.064" class="l">p</text></svg><svg x="2679"><use xlink:href="#a"/><use xlink:href="#b" x="12.996" y="30.369"/><use xlink:href="#1" y="2.171"/><use xlink:href="#3" y="4.342"/><use xlink:href="#4" y="6.513"/><use xlink:href="#5" y="8.684"/><use xlink:href="#6" y="10.855"/><use xlink:href="#7" y="15.197"/><use xlink:href="#8" y="19.539"/><use xlink:href="#9" y="23.881"/><use xlink:href="#1" y="28.223"/><text y="32.064" class="j">20:53:52</text><text x="9.018" y="32.064" class="k">›</text><text x="11.022" y="32.064" class="l">pr</text></svg><svg x="2820"><use xlink:href="#a"/><use xlink:href="#b" x="13.996" y="30.369"/><use xlink:href="#1" y="2.171"/><use xlink:href="#3" y="4.342"/><use xlink:href="#4" y="6.513"/><use xlink:href="#5" y="8.684"/><use xlink:href="#6" y="10.855"/><use xlink:href="#7" y="15.197"/><use xlink:href="#8" y="19.539"/><use xlink:href="#9" y="23.881"/><use xlink:href="#1" y="28.223"/><text y="32.064" class="j">20:53:52</text><text x="9.018" y="32.064" class="k">›</text><text x="11.022" y="32.064" class="l">pro</text></svg><svg x="2961"><use xlink:href="#a"/><use xlink:href="#b" x="14.996" y="30.369"/><use xlink:href="#1" y="2.171"/><use xlink:href="#3" y="4.342"/><use xlink:href="#4" y="6.513"/><use xlink:href="#5" y="8.684"/><use xlink:href="#6" y="10.855"/><use xlink:href="#7" y="15.197"/><use xlink:href="#8" y="19.539"/><use xlink:href="#9" y="23.881"/><use xlink:href="#1" y="28.223"/><text y="32.064" class="j">20:53:52</text><text x="9.018" y="32.064" class="k">›</text><text x="11.022" y="32.064" class="l">prox</text></svg><svg x="3102"><use xlink:href="#a"/><use xlink:href="#b" x="15.996" y="30.369"/><use xlink:href="#1" y="2.171"/><use xlink:href="#3" y="4.342"/><use xlink:href="#4" y="6.513"/><use xlink:href="#5" y="8.684"/><use xlink:href="#6" y="10.855"/><use xlink:href="#7" y="15.197"/><use xlink:href="#8" y="19.539"/><use xlink:href="#9" y="23.881"/><use xlink:href="#1" y="28.223"/><use xlink:href="#11" y="30.394"/></svg><svg x="3243"><use xlink:href="#a"/><use xlink:href="#b" x="15.996" y="30.369"/><use xlink:href="#1" y="2.171"/><use xlink:href="#3" y="4.342"/><use xlink:href="#4" y="6.513"/><use xlink:href="#5" y="8.684"/><use xlink:href="#6" y="10.855"/><use xlink:href="#7" y="15.197"/><use xlink:href="#8" y="19.539"/><use xlink:href="#9" y="23.881"/><use xlink:href="#1" y="28.223"/><use xlink:href="#11" y="30.394"/></svg><svg x="3384"><use xlink:href="#a"/><use xlink:href="#b" x="-.004" y="32.54"/><use xlink:href="#1" y="2.171"/><use xlink:href="#3" y="4.342"/><use xlink:href="#4" y="6.513"/><use xlink:href="#5" y="8.684"/><use xlink:href="#6" y="10.855"/><use xlink:href="#7" y="15.197"/><use xlink:href="#8" y="19.539"/><use xlink:href="#9" y="23.881"/><use xlink:href="#1" y="28.223"/><use xlink:href="#11" y="30.394"/></svg><svg x="3525"><use xlink:href="#a"/><use xlink:href="#b" x="-.004" y="32.54"/><use xlink:href="#1" y="2.171"/><use xlink:href="#3" y="4.342"/><use xlink:href="#4" y="6.513"/><use xlink:href="#5" y="8.684"/><use xlink:href="#6" y="10.855"/><use xlink:href="#7" y="15.197"/><use xlink:href="#8" y="19.539"/><use xlink:href="#9" y="23.881"/><use xlink:href="#1" y="28.223"/><use xlink:href="#11" y="30.394"/></svg><svg x="3666"><use xlink:href="#a"/><use xlink:href="#b" x="-.004" y="32.54"/><use xlink:href="#1" y="2.171"/><use xlink:href="#3" y="4.342"/><use xlink:href="#4" y="6.513"/><use xlink:href="#5" y="8.684"/><use xlink:href="#6" y="10.855"/><use xlink:href="#7" y="15.197"/><use xlink:href="#8" y="19.539"/><use xlink:href="#9" y="23.881"/><use xlink:href="#1" y="28.223"/><use xlink:href="#11" y="30.394"/></svg><svg x="3807"><use xlink:href="#a"/><use xlink:href="#b" x="-.004" y="32.54"/><use xlink:href="#1" y="2.171"/><use xlink:href="#3" y="4.342"/><use xlink:href="#4" y="6.513"/><use xlink:href="#5" y="8.684"/><use xlink:href="#6" y="10.855"/><use xlink:href="#7" y="15.197"/><use xlink:href="#8" y="19.539"/><use xlink:href="#9" y="23.881"/><use xlink:href="#1" y="28.223"/><use xlink:href="#11" y="30.394"/></svg><svg x="3948"><use xlink:href="#a"/><use xlink:href="#b" x="10.996" y="36.882"/><use xlink:href="#1" y="2.171"/><use xlink:href="#3" y="4.342"/><use xlink:href="#4" y="6.513"/><use xlink:href="#5" y="8.684"/><use xlink:href="#6" y="10.855"/><use xlink:href="#7" y="15.197"/><use xlink:href="#8" y="19.539"/><use xlink:href="#9" y="23.881"/><use xlink:href="#1" y="28.223"/><use xlink:href="#11" y="30.394"/><use xlink:href="#1" y="34.736"/><use xlink:href="#12" y="36.907"/></svg><svg x="4089"><use xlink:href="#a"/><use xlink:href="#b" x="10.996" y="36.882"/><use xlink:href="#1" y="2.171"/><use xlink:href="#3" y="4.342"/><use xlink:href="#4" y="6.513"/><use xlink:href="#5" y="8.684"/><use xlink:href="#6" y="10.855"/><use xlink:href="#7" y="15.197"/><use xlink:href="#8" y="19.539"/><use xlink:href="#9" y="23.881"/><use xlink:href="#1" y="28.223"/><use xlink:href="#11" y="30.394"/><use xlink:href="#1" y="34.736"/><use xlink:href="#12" y="36.907"/></svg><svg x="4230"><use xlink:href="#a"/><use xlink:href="#b" x="11.996" y="36.882"/><use xlink:href="#1" y="2.171"/><use xlink:href="#3" y="4.342"/><use xlink:href="#4" y="6.513"/><use xlink:href="#5" y="8.684"/><use xlink:href="#6" y="10.855"/><use xlink:href="#7" y="15.197"/><use xlink:href="#8" y="19.539"/><use xlink:href="#9" y="23.881"/><use xlink:href="#1" y="28.223"/><use xlink:href="#11" y="30.394"/><use xlink:href="#1" y="34.736"/><text y="38.577" class="j">20:53:56</text><text x="9.018" y="38.577" class="k">›</text><text x="11.022" y="38.577" class="l">c</text></svg><svg x="4371"><use xlink:href="#a"/><use xlink:href="#b" x="12.996" y="36.882"/><use xlink:href="#1" y="2.171"/><use xlink:href="#3" y="4.342"/><use xlink:href="#4" y="6.513"/><use xlink:href="#5" y="8.684"/><use xlink:href="#6" y="10.855"/><use xlink:href="#7" y="15.197"/><use xlink:href="#8" y="19.539"/><use xlink:href="#9" y="23.881"/><use xlink:href="#1" y="28.223"/><use xlink:href="#11" y="30.394"/><use xlink:href="#1" y="34.736"/><text y="38.577" class="j">20:53:56</text><text x="9.018" y="38.577" class="k">›</text><text x="11.022" y="38.577" class="l">cu</text></svg><svg x="4512"><use xlink:href="#a"/><use xlink:href="#b" x="13.996" y="36.882"/><use xlink:href="#1" y="2.171"/><use xlink:href="#3" y="4.342"/><use xlink:href="#4" y="6.513"/><use xlink:href="#5" y="8.684"/><use xlink:href="#6" y="10.855"/><use xlink:href="#7" y="15.197"/><use xlink:href="#8" y="19.539"/><use xlink:href="#9" y="23.881"/><use xlink:href="#1" y="28.223"/><use xlink:href="#11" y="30.394"/><use xlink:href="#1" y="34.736"/><text y="38.577" class="j">20:53:56</text><text x="9.018" y="38.577" class="k">›</text><text x="11.022" y="38.577" class="l">cur</text></svg><svg x="4653"><use xlink:href="#a"/><use xlink:href="#b" x="14.996" y="36.882"/><use xlink:href="#1" y="2.171"/><use xlink:href="#3" y="4.342"/><use xlink:href="#4" y="6.513"/><use xlink:href="#5" y="8.684"/><use xlink:href="#6" y="10.855"/><use xlink:href="#7" y="15.197"/><use xlink:href="#8" y="19.539"/><use xlink:href="#9" y="23.881"/><use xlink:href="#1" y="28.223"/><use xlink:href="#11" y="30.394"/><use xlink:href="#1" y="34.736"/><text y="38.577" class="j">20:53:56</text><text x="9.018" y="38.577" class="k">›</text><text x="11.022" y="38.577" class="l">curl</text></svg><svg x="4794"><use xlink:href="#a"/><use xlink:href="#b" x="21.996" y="36.882"/><use xlink:href="#1" y="2.171"/><use xlink:href="#3" y="4.342"/><use xlink:href="#4" y="6.513"/><use xlink:href="#5" y="8.684"/><use xlink:href="#6" y="10.855"/><use xlink:href="#7" y="15.197"/><use xlink:href="#8" y="19.539"/><use xlink:href="#9" y="23.881"/><use xlink:href="#1" y="28.223"/><use xlink:href="#11" y="30.394"/><use xlink:href="#1" y="34.736"/><use xlink:href="#13" y="36.907"/></svg><svg x="4935"><use xlink:href="#a"/><use xlink:href="#b" x="21.996" y="36.882"/><use xlink:href="#1" y="2.171"/><use xlink:href="#3" y="4.342"/><use xlink:href="#4" y="6.513"/><use xlink:href="#5" y="8.684"/><use xlink:href="#6" y="10.855"/><use xlink:href="#7" y="15.197"/><use xlink:href="#8" y="19.539"/><use xlink:href="#9" y="23.881"/><use xlink:href="#1" y="28.223"/><use xlink:href="#11" y="30.394"/><use xlink:href="#1" y="34.736"/><use xlink:href="#13" y="36.907"/></svg><svg x="5076"><use xlink:href="#a"/><use xlink:href="#b" x="-.004" y="39.053"/><use xlink:href="#1" y="2.171"/><use xlink:href="#3" y="4.342"/><use xlink:href="#4" y="6.513"/><use xlink:href="#5" y="8.684"/><use xlink:href="#6" y="10.855"/><use xlink:href="#7" y="15.197"/><use xlink:href="#8" y="19.539"/><use xlink:href="#9" y="23.881"/><use xlink:href="#1" y="28.223"/><use xlink:href="#11" y="30.394"/><use xlink:href="#1" y="34.736"/><use xlink:href="#13" y="36.907"/></svg><svg x="5217"><use xlink:href="#a"/><use xlink:href="#b" x="-.004" y="39.053"/><use xlink:href="#1" y="2.171"/><use xlink:href="#3" y="4.342"/><use xlink:href="#4" y="6.513"/><use xlink:href="#5" y="8.684"/><use xlink:href="#6" y="10.855"/><use xlink:href="#7" y="15.197"/><use xlink:href="#8" y="19.539"/><use xlink:href="#9" y="23.881"/><use xlink:href="#1" y="28.223"/><use xlink:href="#11" y="30.394"/><use xlink:href="#1" y="34.736"/><use xlink:href="#13" y="36.907"/></svg><svg x="5358"><use xlink:href="#a"/><use xlink:href="#b" x="-.004" y="56.421"/><use xlink:href="#1" y="2.171"/><use xlink:href="#3" y="4.342"/><use xlink:href="#4" y="6.513"/><use xlink:href="#5" y="8.684"/><use xlink:href="#6" y="10.855"/><use xlink:href="#7" y="15.197"/><use xlink:href="#8" y="19.539"/><use xlink:href="#9" y="23.881"/><use xlink:href="#1" y="28.223"/><use xlink:href="#11" y="30.394"/><use xlink:href="#1" y="34.736"/><use xlink:href="#13" y="36.907"/><use xlink:href="#14" y="39.078"/><use xlink:href="#15" y="41.249"/><use xlink:href="#16" y="45.591"/><use xlink:href="#17" y="49.933"/><use xlink:href="#18" y="54.275"/></svg><svg x="5499"><use xlink:href="#a"/><use xlink:href="#b" x="-.004" y="56.421"/><use xlink:href="#1" y="2.171"/><use xlink:href="#3" y="4.342"/><use xlink:href="#4" y="6.513"/><use xlink:href="#5" y="8.684"/><use xlink:href="#6" y="10.855"/><use xlink:href="#7" y="15.197"/><use xlink:href="#8" y="19.539"/><use xlink:href="#9" y="23.881"/><use xlink:href="#1" y="28.223"/><use xlink:href="#11" y="30.394"/><use xlink:href="#1" y="34.736"/><use xlink:href="#13" y="36.907"/><use xlink:href="#14" y="39.078"/><use xlink:href="#15" y="41.249"/><use xlink:href="#16" y="45.591"/><use xlink:href="#17" y="49.933"/><use xlink:href="#18" y="54.275"/></svg><svg x="5640"><use xlink:href="#a"/><use xlink:href="#b" x="-.004" y="56.421"/><use xlink:href="#1" y="2.171"/><use xlink:href="#3" y="4.342"/><use xlink:href="#4" y="6.513"/><use xlink:href="#5" y="8.684"/><use xlink:href="#6" y="10.855"/><use xlink:href="#7" y="15.197"/><use xlink:href="#8" y="19.539"/><use xlink:href="#9" y="23.881"/><use xlink:href="#1" y="28.223"/><use xlink:href="#11" y="30.394"/><use xlink:href="#1" y="34.736"/><use xlink:href="#13" y="36.907"/><use xlink:href="#14" y="39.078"/><use xlink:href="#15" y="41.249"/><use xlink:href="#16" y="45.591"/><use xlink:href="#17" y="49.933"/><use xlink:href="#18" y="54.275"/></svg><svg x="5781"><use xlink:href="#a"/><use xlink:href="#b" x="10.996" y="60.763"/><use xlink:href="#1" y="2.171"/><use xlink:href="#3" y="4.342"/><use xlink:href="#4" y="6.513"/><use xlink:href="#5" y="8.684"/><use xlink:href="#6" y="10.855"/><use xlink:href="#7" y="15.197"/><use xlink:href="#8" y="19.539"/><use xlink:href="#9" y="23.881"/><use xlink:href="#1" y="28.223"/><use xlink:href="#11" y="30.394"/><use xlink:href="#1" y="34.736"/><use xlink:href="#13" y="36.907"/><use xlink:href="#14" y="39.078"/><use xlink:href="#15" y="41.249"/><use xlink:href="#16" y="45.591"/><use xlink:href="#17" y="49.933"/><use xlink:href="#18" y="54.275"/><use xlink:href="#1" y="58.617"/><use xlink:href="#19" y="60.788"/></svg><svg x="5922"><use xlink:href="#a"/><use xlink:href="#b" x="10.996" y="60.763"/><use xlink:href="#1" y="2.171"/><use xlink:href="#3" y="4.342"/><use xlink:href="#4" y="6.513"/><use xlink:href="#5" y="8.684"/><use xlink:href="#6" y="10.855"/><use xlink:href="#7" y="15.197"/><use xlink:href="#8" y="19.539"/><use xlink:href="#9" y="23.881"/><use xlink:href="#1" y="28.223"/><use xlink:href="#11" y="30.394"/><use xlink:href="#1" y="34.736"/><use xlink:href="#13" y="36.907"/><use xlink:href="#14" y="39.078"/><use xlink:href="#15" y="41.249"/><use xlink:href="#16" y="45.591"/><use xlink:href="#17" y="49.933"/><use xlink:href="#18" y="54.275"/><use xlink:href="#1" y="58.617"/><use xlink:href="#19" y="60.788"/></svg><svg x="6063"><use xlink:href="#a"/><use xlink:href="#b" x="11.996" y="60.763"/><use xlink:href="#1" y="2.171"/><use xlink:href="#3" y="4.342"/><use xlink:href="#4" y="6.513"/><use xlink:href="#5" y="8.684"/><use xlink:href="#6" y="10.855"/><use xlink:href="#7" y="15.197"/><use xlink:href="#8" y="19.539"/><use xlink:href="#9" y="23.881"/><use xlink:href="#1" y="28.223"/><use xlink:href="#11" y="30.394"/><use xlink:href="#1" y="34.736"/><use xlink:href="#13" y="36.907"/><use xlink:href="#14" y="39.078"/><use xlink:href="#15" y="41.249"/><use xlink:href="#16" y="45.591"/><use xlink:href="#17" y="49.933"/><use xlink:href="#18" y="54.275"/><use xlink:href="#1" y="58.617"/><text y="62.458" class="j">20:54:01</text><text x="9.018" y="62.458" class="k">›</text><text x="11.022" y="62.458" class="l">c</text></svg><svg x="6204"><use xlink:href="#a"/><use xlink:href="#b" x="12.996" y="60.763"/><use xlink:href="#1" y="2.171"/><use xlink:href="#3" y="4.342"/><use xlink:href="#4" y="6.513"/><use xlink:href="#5" y="8.684"/><use xlink:href="#6" y="10.855"/><use xlink:href="#7" y="15.197"/><use xlink:href="#8" y="19.539"/><use xlink:href="#9" y="23.881"/><use xlink:href="#1" y="28.223"/><use xlink:href="#11" y="30.394"/><use xlink:href="#1" y="34.736"/><use xlink:href="#13" y="36.907"/><use xlink:href="#14" y="39.078"/><use xlink:href="#15" y="41.249"/><use xlink:href="#16" y="45.591"/><use xlink:href="#17" y="49.933"/><use xlink:href="#18" y="54.275"/><use xlink:href="#1" y="58.617"/><text y="62.458" class="j">20:54:01</text><text x="9.018" y="62.458" class="k">›</text><text x="11.022" y="62.458" class="l">cl</text></svg><svg x="6345"><use xlink:href="#a"/><use xlink:href="#b" x="13.996" y="60.763"/><use xlink:href="#1" y="2.171"/><use xlink:href="#3" y="4.342"/><use xlink:href="#4" y="6.513"/><use xlink:href="#5" y="8.684"/><use xlink:href="#6" y="10.855"/><use xlink:href="#7" y="15.197"/><use xlink:href="#8" y="19.539"/><use xlink:href="#9" y="23.881"/><use xlink:href="#1" y="28.223"/><use xlink:href="#11" y="30.394"/><use xlink:href="#1" y="34.736"/><use xlink:href="#13" y="36.907"/><use xlink:href="#14" y="39.078"/><use xlink:href="#15" y="41.249"/><use xlink:href="#16" y="45.591"/><use xlink:href="#17" y="49.933"/><use xlink:href="#18" y="54.275"/><use xlink:href="#1" y="58.617"/><text y="62.458" class="j">20:54:01</text><text x="9.018" y="62.458" class="k">›</text><text x="11.022" y="62.458" class="l">cle</text></svg><svg x="6486"><use xlink:href="#a"/><use xlink:href="#b" x="14.996" y="60.763"/><use xlink:href="#1" y="2.171"/><use xlink:href="#3" y="4.342"/><use xlink:href="#4" y="6.513"/><use xlink:href="#5" y="8.684"/><use xlink:href="#6" y="10.855"/><use xlink:href="#7" y="15.197"/><use xlink:href="#8" y="19.539"/><use xlink:href="#9" y="23.881"/><use xlink:href="#1" y="28.223"/><use xlink:href="#11" y="30.394"/><use xlink:href="#1" y="34.736"/><use xlink:href="#13" y="36.907"/><use xlink:href="#14" y="39.078"/><use xlink:href="#15" y="41.249"/><use xlink:href="#16" y="45.591"/><use xlink:href="#17" y="49.933"/><use xlink:href="#18" y="54.275"/><use xlink:href="#1" y="58.617"/><text y="62.458" class="j">20:54:01</text><text x="9.018" y="62.458" class="k">›</text><text x="11.022" y="62.458" class="l">clea</text></svg><svg x="6627"><use xlink:href="#a"/><use xlink:href="#b" x="15.996" y="60.763"/><use xlink:href="#1" y="2.171"/><use xlink:href="#3" y="4.342"/><use xlink:href="#4" y="6.513"/><use xlink:href="#5" y="8.684"/><use xlink:href="#6" y="10.855"/><use xlink:href="#7" y="15.197"/><use xlink:href="#8" y="19.539"/><use xlink:href="#9" y="23.881"/><use xlink:href="#1" y="28.223"/><use xlink:href="#11" y="30.394"/><use xlink:href="#1" y="34.736"/><use xlink:href="#13" y="36.907"/><use xlink:href="#14" y="39.078"/><use xlink:href="#15" y="41.249"/><use xlink:href="#16" y="45.591"/><use xlink:href="#17" y="49.933"/><use xlink:href="#18" y="54.275"/><use xlink:href="#1" y="58.617"/><use xlink:href="#20" y="60.788"/></svg><svg x="6768"><use xlink:href="#a"/><use xlink:href="#b" x="15.996" y="60.763"/><use xlink:href="#1" y="2.171"/><use xlink:href="#3" y="4.342"/><use xlink:href="#4" y="6.513"/><use xlink:href="#5" y="8.684"/><use xlink:href="#6" y="10.855"/><use xlink:href="#7" y="15.197"/><use xlink:href="#8" y="19.539"/><use xlink:href="#9" y="23.881"/><use xlink:href="#1" y="28.223"/><use xlink:href="#11" y="30.394"/><use xlink:href="#1" y="34.736"/><use xlink:href="#13" y="36.907"/><use xlink:href="#14" y="39.078"/><use xlink:href="#15" y="41.249"/><use xlink:href="#16" y="45.591"/><use xlink:href="#17" y="49.933"/><use xlink:href="#18" y="54.275"/><use xlink:href="#1" y="58.617"/><use xlink:href="#20" y="60.788"/></svg><svg x="6909"><use xlink:href="#a"/><use xlink:href="#b" x="-.004" y="62.934"/><use xlink:href="#1" y="2.171"/><use xlink:href="#3" y="4.342"/><use xlink:href="#4" y="6.513"/><use xlink:href="#5" y="8.684"/><use xlink:href="#6" y="10.855"/><use xlink:href="#7" y="15.197"/><use xlink:href="#8" y="19.539"/><use xlink:href="#9" y="23.881"/><use xlink:href="#1" y="28.223"/><use xlink:href="#11" y="30.394"/><use xlink:href="#1" y="34.736"/><use xlink:href="#13" y="36.907"/><use xlink:href="#14" y="39.078"/><use xlink:href="#15" y="41.249"/><use xlink:href="#16" y="45.591"/><use xlink:href="#17" y="49.933"/><use xlink:href="#18" y="54.275"/><use xlink:href="#1" y="58.617"/><use xlink:href="#20" y="60.788"/></svg><svg x="7050"><use xlink:href="#a"/><use xlink:href="#b" x="-.004" y="62.934"/><use xlink:href="#1" y="2.171"/><use xlink:href="#3" y="4.342"/><use xlink:href="#4" y="6.513"/><use xlink:href="#5" y="8.684"/><use xlink:href="#6" y="10.855"/><use xlink:href="#7" y="15.197"/><use xlink:href="#8" y="19.539"/><use xlink:href="#9" y="23.881"/><use xlink:href="#1" y="28.223"/><use xlink:href="#11" y="30.394"/><use xlink:href="#1" y="34.736"/><use xlink:href="#13" y="36.907"/><use xlink:href="#14" y="39.078"/><use xlink:href="#15" y="41.249"/><use xlink:href="#16" y="45.591"/><use xlink:href="#17" y="49.933"/><use xlink:href="#18" y="54.275"/><use xlink:href="#1" y="58.617"/><use xlink:href="#20" y="60.788"/></svg><svg x="7191"><use xlink:href="#a"/><use xlink:href="#b" x="-.004"/></svg><svg x="7332"><use xlink:href="#a"/><use xlink:href="#b" x="-.004"/></svg><svg x="7473"><use xlink:href="#a"/><use xlink:href="#b" x="-.004"/></svg><svg x="7614"><use xlink:href="#a"/><use xlink:href="#b" x="10.996" y="4.317"/><use xlink:href="#1" y="2.171"/><use xlink:href="#21" y="4.342"/></svg><svg x="7755"><use xlink:href="#a"/><use xlink:href="#b" x="10.996" y="4.317"/><use xlink:href="#1" y="2.171"/><use xlink:href="#21" y="4.342"/></svg><svg x="7896"><use xlink:href="#a"/><use xlink:href="#b" x="15.996" y="4.317"/><use xlink:href="#1" y="2.171"/><text y="6.012" class="j">20:54:02</text><text x="9.018" y="6.012" class="k">›</text><text x="11.022" y="6.012" class="l">clear</text></svg><svg x="8037"><use xlink:href="#a"/><use xlink:href="#b" x="10.996" y="4.317"/><use xlink:href="#1" y="2.171"/><use xlink:href="#21" y="4.342"/></svg><svg x="8178"><use xlink:href="#a"/><use xlink:href="#b" x="11.996" y="4.317"/><use xlink:href="#1" y="2.171"/><text y="6.012" class="j">20:54:02</text><text x="9.018" y="6.012" class="k">›</text><text x="11.022" y="6.012" class="l">n</text></svg><svg x="8319"><use xlink:href="#a"/><use xlink:href="#b" x="10.996" y="4.317"/><use xlink:href="#1" y="2.171"/><use xlink:href="#21" y="4.342"/></svg><svg x="8460"><use xlink:href="#a"/><use xlink:href="#b" x="11.996" y="4.317"/><use xlink:href="#1" y="2.171"/><text y="6.012" class="j">20:54:02</text><text x="9.018" y="6.012" class="k">›</text><text x="11.022" y="6.012" class="l">u</text></svg><svg x="8601"><use xlink:href="#a"/><use xlink:href="#b" x="12.996" y="4.317"/><use xlink:href="#1" y="2.171"/><text y="6.012" class="j">20:54:02</text><text x="9.018" y="6.012" class="k">›</text><text x="11.022" y="6.012" class="l">un</text></svg><svg x="8742"><use xlink:href="#a"/><use xlink:href="#b" x="13.996" y="4.317"/><use xlink:href="#1" y="2.171"/><use xlink:href="#22" y="4.342"/></svg><svg x="8883"><use xlink:href="#a"/><use xlink:href="#b" x="13.996" y="4.317"/><use xlink:href="#1" y="2.171"/><use xlink:href="#22" y="4.342"/></svg><svg x="9024"><use xlink:href="#a"/><use xlink:href="#b" x="-.004" y="6.488"/><use xlink:href="#1" y="2.171"/><use xlink:href="#22" y="4.342"/></svg><svg x="9165"><use xlink:href="#a"/><use xlink:href="#b" x="13.996" y="4.317"/><use xlink:href="#1" y="2.171"/><use xlink:href="#22" y="4.342"/><use xlink:href="#23" y="6.513"/></svg><svg x="9306"><use xlink:href="#a"/><use xlink:href="#b" x="14.996" y="4.317"/><use xlink:href="#1" y="2.171"/><use xlink:href="#24" y="4.342"/><use xlink:href="#23" y="6.513"/></svg><svg x="9447"><use xlink:href="#a"/><use xlink:href="#b" x="15.996" y="4.317"/><use xlink:href="#1" y="2.171"/><text y="6.012" class="j">20:54:02</text><text x="9.018" y="6.012" class="k">›</text><text x="11.022" y="6.012" class="l">unppr</text><use xlink:href="#23" y="6.513"/></svg><svg x="9588"><use xlink:href="#a"/><use xlink:href="#b" x="14.996" y="4.317"/><use xlink:href="#1" y="2.171"/><use xlink:href="#24" y="4.342"/><use xlink:href="#23" y="6.513"/></svg><svg x="9729"><use xlink:href="#a"/><use xlink:href="#b" x="13.996" y="4.317"/><use xlink:href="#1" y="2.171"/><use xlink:href="#22" y="4.342"/><use xlink:href="#23" y="6.513"/></svg><svg x="9870"><use xlink:href="#a"/><use xlink:href="#b" x="14.996" y="4.317"/><use xlink:href="#1" y="2.171"/><text y="6.012" class="j">20:54:02</text><text x="9.018" y="6.012" class="k">›</text><text x="11.022" y="6.012" class="l">unpi</text><use xlink:href="#23" y="6.513"/></svg><svg x="10011"><use xlink:href="#a"/><use xlink:href="#b" x="13.996" y="4.317"/><use xlink:href="#1" y="2.171"/><use xlink:href="#22" y="4.342"/><use xlink:href="#23" y="6.513"/></svg><svg x="10152"><use xlink:href="#a"/><use xlink:href="#b" x="14.996" y="4.317"/><use xlink:href="#1" y="2.171"/><text y="6.012" class="j">20:54:02</text><text x="9.018" y="6.012" class="k">›</text><text x="11.022" y="6.012" class="l">unpr</text><use xlink:href="#23" y="6.513"/></svg><svg x="10293"><use xlink:href="#a"/><use xlink:href="#b" x="15.996" y="4.317"/><use xlink:href="#1" y="2.171"/><text y="6.012" class="j">20:54:02</text><text x="9.018" y="6.012" class="k">›</text><text x="11.022" y="6.012" class="l">unpro</text><use xlink:href="#23" y="6.513"/></svg><svg x="10434"><use xlink:href="#a"/><use xlink:href="#b" x="18.996" y="4.317"/><use xlink:href="#1" y="2.171"/><use xlink:href="#25" y="4.342"/><use xlink:href="#23" y="6.513"/></svg><svg x="10575"><use xlink:href="#a"/><use xlink:href="#b" x="17.996" y="4.317"/><use xlink:href="#1" y="2.171"/><use xlink:href="#25" y="4.342"/><use xlink:href="#23" y="6.513"/></svg><svg x="10716"><use xlink:href="#a"/><use xlink:href="#b" x="-.004" y="6.488"/><use xlink:href="#1" y="2.171"/><use xlink:href="#25" y="4.342"/></svg><svg x="10857"><use xlink:href="#a"/><use xlink:href="#b" x="-.004" y="6.488"/><use xlink:href="#1" y="2.171"/><use xlink:href="#25" y="4.342"/></svg><svg x="10998"><use xlink:href="#a"/><use xlink:href="#b" x="-.004" y="6.488"/><use xlink:href="#1" y="2.171"/><use xlink:href="#25" y="4.342"/></svg><svg x="11139"><use xlink:href="#a"/><use xlink:href="#b" x="10.996" y="10.83"/><use xlink:href="#1" y="2.171"/><use xlink:href="#25" y="4.342"/><use xlink:href="#1" y="8.684"/><use xlink:href="#26" y="10.855"/></svg><svg x="11280"><use xlink:href="#a"/><use xlink:href="#b" x="10.996" y="10.83"/><use xlink:href="#1" y="2.171"/><use xlink:href="#25" y="4.342"/><use xlink:href="#1" y="8.684"/><use xlink:href="#26" y="10.855"/></svg><svg x="11421"><use xlink:href="#a"/><use xlink:href="#b" x="11.996" y="10.83"/><use xlink:href="#1" y="2.171"/><use xlink:href="#25" y="4.342"/><use xlink:href="#1" y="8.684"/><text y="12.525" class="j">20:54:09</text><text x="9.018" y="12.525" class="k">›</text><text x="11.022" y="12.525" class="l">c</text></svg><svg x="11562"><use xlink:href="#a"/><use xlink:href="#b" x="15.996" y="10.83"/><use xlink:href="#1" y="2.171"/><use xlink:href="#25" y="4.342"/><use xlink:href="#1" y="8.684"/><use xlink:href="#27" y="10.855"/></svg><svg x="11703"><use xlink:href="#a"/><use xlink:href="#b" x="15.996" y="10.83"/><use xlink:href="#1" y="2.171"/><use xlink:href="#25" y="4.342"/><use xlink:href="#1" y="8.684"/><use xlink:href="#27" y="10.855"/></svg><svg x="11844"><use xlink:href="#a"/><use xlink:href="#b" x="-.004" y="13.001"/><use xlink:href="#1" y="2.171"/><use xlink:href="#25" y="4.342"/><use xlink:href="#1" y="8.684"/><use xlink:href="#27" y="10.855"/></svg><svg x="11985"><use xlink:href="#a"/><use xlink:href="#b" x="-.004" y="13.001"/><use xlink:href="#1" y="2.171"/><use xlink:href="#25" y="4.342"/><use xlink:href="#1" y="8.684"/><use xlink:href="#27" y="10.855"/></svg><svg x="12126"><use xlink:href="#a"/><use xlink:href="#b" x="-.004"/></svg><svg x="12267"><use xlink:href="#a"/><use xlink:href="#b" x="-.004"/></svg><svg x="12408"><use xlink:href="#a"/><use xlink:href="#b" x="-.004"/></svg><svg x="12549"><use xlink:href="#a"/><use xlink:href="#b" x="10.996" y="4.317"/><use xlink:href="#1" y="2.171"/><use xlink:href="#28" y="4.342"/></svg><svg x="12690"><use xlink:href="#a"/><use xlink:href="#b" x="10.996" y="4.317"/><use xlink:href="#1" y="2.171"/><use xlink:href="#28" y="4.342"/></svg><svg x="12831"><use xlink:href="#a"/><use xlink:href="#b" x="11.996" y="4.317"/><use xlink:href="#1" y="2.171"/><use xlink:href="#29" y="4.342"/></svg><svg x="12972"><use xlink:href="#a"/><use xlink:href="#b" x="12.996" y="4.317"/><use xlink:href="#1" y="2.171"/><text y="6.012" class="j">20:54:11</text><text x="9.018" y="6.012" class="k">›</text><text x="11.022" y="6.012" class="l">cc</text></svg><svg x="13113"><use xlink:href="#a"/><use xlink:href="#b" x="11.996" y="4.317"/><use xlink:href="#1" y="2.171"/><use xlink:href="#29" y="4.342"/></svg><svg x="13254"><use xlink:href="#a"/><use xlink:href="#b" x="12.996" y="4.317"/><use xlink:href="#1" y="2.171"/><text y="6.012" class="j">20:54:11</text><text x="9.018" y="6.012" class="k">›</text><text x="11.022" y="6.012" class="l">cu</text></svg><svg x="13395"><use xlink:href="#a"/><use xlink:href="#b" x="21.996" y="4.317"/><use xlink:href="#1" y="2.171"/><use xlink:href="#30" y="4.342"/></svg><svg x="13536"><use xlink:href="#a"/><use xlink:href="#b" x="21.996" y="4.317"/><use xlink:href="#1" y="2.171"/><use xlink:href="#30" y="4.342"/></svg><svg x="13677"><use xlink:href="#a"/><use xlink:href="#b" x="-.004" y="6.488"/><use xlink:href="#1" y="2.171"/><use xlink:href="#30" y="4.342"/></svg><svg x="13818"><use xlink:href="#a"/><use xlink:href="#b" x="-.004" y="6.488"/><use xlink:href="#1" y="2.171"/><use xlink:href="#30" y="4.342"/></svg><svg x="13959"><use xlink:href="#a"/><use xlink:href="#b" x="-.004" y="8.659"/><use xlink:href="#1" y="2.171"/><use xlink:href="#30" y="4.342"/><use xlink:href="#4" y="6.513"/></svg><svg x="14100"><use xlink:href="#a"/><use xlink:href="#b" x="-.004" y="26.027"/><use xlink:href="#1" y="2.171"/><use xlink:href="#30" y="4.342"/><use xlink:href="#4" y="6.513"/><use xlink:href="#5" y="8.684"/><use xlink:href="#6" y="10.855"/><use xlink:href="#7" y="15.197"/><use xlink:href="#8" y="19.539"/><use xlink:href="#9" y="23.881"/></svg><svg x="14241"><use xlink:href="#a"/><use xlink:href="#b" x="-.004" y="26.027"/><use xlink:href="#1" y="2.171"/><use xlink:href="#30" y="4.342"/><use xlink:href="#4" y="6.513"/><use xlink:href="#5" y="8.684"/><use xlink:href="#6" y="10.855"/><use xlink:href="#7" y="15.197"/><use xlink:href="#8" y="19.539"/><use xlink:href="#9" y="23.881"/></svg><svg x="14382"><use xlink:href="#a"/><use xlink:href="#b" x="-.004" y="26.027"/><use xlink:href="#1" y="2.171"/><use xlink:href="#30" y="4.342"/><use xlink:href="#4" y="6.513"/><use xlink:href="#5" y="8.684"/><use xlink:href="#6" y="10.855"/><use xlink:href="#7" y="15.197"/><use xlink:href="#8" y="19.539"/><use xlink:href="#9" y="23.881"/></svg><svg x="14523"><use xlink:href="#a"/><use xlink:href="#b" x="-.004" y="26.027"/><use xlink:href="#1" y="2.171"/><use xlink:href="#30" y="4.342"/><use xlink:href="#4" y="6.513"/><use xlink:href="#5" y="8.684"/><use xlink:href="#6" y="10.855"/><use xlink:href="#7" y="15.197"/><use xlink:href="#8" y="19.539"/><use xlink:href="#9" y="23.881"/></svg><svg x="14664"><use xlink:href="#a"/><use xlink:href="#b" x="10.996" y="30.369"/><use xlink:href="#1" y="2.171"/><use xlink:href="#30" y="4.342"/><use xlink:href="#4" y="6.513"/><use xlink:href="#5" y="8.684"/><use xlink:href="#6" y="10.855"/><use xlink:href="#7" y="15.197"/><use xlink:href="#8" y="19.539"/><use xlink:href="#9" y="23.881"/><use xlink:href="#1" y="28.223"/><use xlink:href="#31" y="30.394"/></svg><svg x="14805"><use xlink:href="#a"/><use xlink:href="#b" x="10.996" y="30.369"/><use xlink:href="#1" y="2.171"/><use xlink:href="#30" y="4.342"/><use xlink:href="#4" y="6.513"/><use xlink:href="#5" y="8.684"/><use xlink:href="#6" y="10.855"/><use xlink:href="#7" y="15.197"/><use xlink:href="#8" y="19.539"/><use xlink:href="#9" y="23.881"/><use xlink:href="#1" y="28.223"/><use xlink:href="#31" y="30.394"/></svg><svg x="14946"><use xlink:href="#a"/><use xlink:href="#b" x="11.996" y="30.369"/><use xlink:href="#1" y="2.171"/><use xlink:href="#30" y="4.342"/><use xlink:href="#4" y="6.513"/><use xlink:href="#5" y="8.684"/><use xlink:href="#6" y="10.855"/><use xlink:href="#7" y="15.197"/><use xlink:href="#8" y="19.539"/><use xlink:href="#9" y="23.881"/><use xlink:href="#1" y="28.223"/><text y="32.064" class="j">20:54:14</text><text x="9.018" y="32.064" class="k">›</text><text x="11.022" y="32.064" class="l">e</text></svg><svg x="15087"><use xlink:href="#a"/><use xlink:href="#b" x="12.996" y="30.369"/><use xlink:href="#1" y="2.171"/><use xlink:href="#30" y="4.342"/><use xlink:href="#4" y="6.513"/><use xlink:href="#5" y="8.684"/><use xlink:href="#6" y="10.855"/><use xlink:href="#7" y="15.197"/><use xlink:href="#8" y="19.539"/><use xlink:href="#9" y="23.881"/><use xlink:href="#1" y="28.223"/><text y="32.064" class="j">20:54:14</text><text x="9.018" y="32.064" class="k">›</text><text x="11.022" y="32.064" class="l">ex</text></svg><svg x="15228"><use xlink:href="#a"/><use xlink:href="#b" x="13.996" y="30.369"/><use xlink:href="#1" y="2.171"/><use xlink:href="#30" y="4.342"/><use xlink:href="#4" y="6.513"/><use xlink:href="#5" y="8.684"/><use xlink:href="#6" y="10.855"/><use xlink:href="#7" y="15.197"/><use xlink:href="#8" y="19.539"/><use xlink:href="#9" y="23.881"/><use xlink:href="#1" y="28.223"/><text y="32.064" class="j">20:54:14</text><text x="9.018" y="32.064" class="k">›</text><text x="11.022" y="32.064" class="l">exi</text></svg><svg x="15369"><use xlink:href="#a"/><use xlink:href="#b" x="14.996" y="30.369"/><use xlink:href="#1" y="2.171"/><use xlink:href="#30" y="4.342"/><use xlink:href="#4" y="6.513"/><use xlink:href="#5" y="8.684"/><use xlink:href="#6" y="10.855"/><use xlink:href="#7" y="15.197"/><use xlink:href="#8" y="19.539"/><use xlink:href="#9" y="23.881"/><use xlink:href="#1" y="28.223"/><use xlink:href="#32" y="30.394"/></svg><svg x="15510"><use xlink:href="#a"/><use xlink:href="#b" x="14.996" y="30.369"/><use xlink:href="#1" y="2.171"/><use xlink:href="#30" y="4.342"/><use xlink:href="#4" y="6.513"/><use xlink:href="#5" y="8.684"/><use xlink:href="#6" y="10.855"/><use xlink:href="#7" y="15.197"/><use xlink:href="#8" y="19.539"/><use xlink:href="#9" y="23.881"/><use xlink:href="#1" y="28.223"/><use xlink:href="#32" y="30.394"/></svg><svg x="15651"><use xlink:href="#a"/><use xlink:href="#b" x="-.004" y="32.54"/><use xlink:href="#1" y="2.171"/><use xlink:href="#30" y="4.342"/><use xlink:href="#4" y="6.513"/><use xlink:href="#5" y="8.684"/><use xlink:href="#6" y="10.855"/><use xlink:href="#7" y="15.197"/><use xlink:href="#8" y="19.539"/><use xlink:href="#9" y="23.881"/><use xlink:href="#1" y="28.223"/><use xlink:href="#32" y="30.394"/></svg><svg x="15792"><use xlink:href="#a"/><use xlink:href="#b" x="-.004" y="32.54"/><use xlink:href="#1" y="2.171"/><use xlink:href="#30" y="4.342"/><use xlink:href="#4" y="6.513"/><use xlink:href="#5" y="8.684"/><use xlink:href="#6" y="10.855"/><use xlink:href="#7" y="15.197"/><use xlink:href="#8" y="19.539"/><use xlink:href="#9" y="23.881"/><use xlink:href="#1" y="28.223"/><use xlink:href="#32" y="30.394"/></svg></svg></g></g></svg></svg>