<svg xmlns="http://www.w3.org/2000/svg" xmlns:xlink="http://www.w3.org/1999/xlink" width="1020" height="928.4"><rect width="1020" height="928.4" rx="5" ry="5" class="a"/><svg y="0%" x="0%"><circle cx="20" cy="20" r="6" fill="#ff5f58"/><circle cx="40" cy="20" r="6" fill="#ffbd2e"/><circle cx="60" cy="20" r="6" fill="#18c132"/></svg><svg height="868.4" viewBox="0 0 98 86.84" width="980" x="15" xmlns="http://www.w3.org/2000/svg" xmlns:xlink="http://www.w3.org/1999/xlink" y="50"><style>@keyframes l{0%{transform:translateX(0)}10.7%{transform:translateX(-196px)}12.4%{transform:translateX(-490px)}23.8%{transform:translateX(-588px)}24.6%{transform:translateX(-686px)}28.8%{transform:translateX(-784px)}30.1%{transform:translateX(-882px)}33%{transform:translateX(-980px)}34.9%{transform:translateX(-1176px)}44%{transform:translateX(-1274px)}45.5%{transform:translateX(-1372px)}49.4%{transform:translateX(-1470px)}49.9%{transform:translateX(-1568px)}51%{transform:translateX(-1666px)}54.5%{transform:translateX(-1764px)}56.1%{transform:translateX(-1862px)}58.1%{transform:translateX(-1960px)}62.8%{transform:translateX(-2058px)}64.2%{transform:translateX(-2156px)}65.3%{transform:translateX(-2254px)}68.2%{transform:translateX(-2352px)}69.5%{transform:translateX(-2450px)}69.9%{transform:translateX(-2548px)}70.8%{transform:translateX(-2646px)}71.6%{transform:translateX(-2744px)}73%{transform:translateX(-2842px)}78.9%{transform:translateX(-2940px)}85.3%{transform:translateX(-3038px)}90.3%{transform:translateX(-3136px)}90.5%{transform:translateX(-3234px)}95.9%{transform:translateX(-3430px)}98%{transform:translateX(-3920px)}99.6%{transform:translateX(-4116px)}to{transform:translateX(-4312px)}}.a{fill:#282d35}.f{fill:#71bef2}.h{fill:#dbab79}.i{fill:#b9c0cb}</style><g font-size="1.67" font-family="Monaco,Consolas,Menlo,'Bitstream Vera Sans Mono','Powerline Symbols',monospace"><defs><symbol id="1"><path class="f" d="M0 0h29v2.171H0z"/><text y="1.67" class="g">~/analysis/extract_sql/test</text><path class="h" d="M29.058 0h1v2.171h-1z"/><text x="29.058" y="1.67" class="f"></text><path class="h" d="M30.06 0h10v2.171h-10z"/><text x="30.06" y="1.67" class="g"> master</text><text x="40.08" y="1.67" class="h"></text></symbol><symbol id="2"><path class="f" d="M0 0h29v2.171H0z"/><text y="1.67" class="g">~/analysis/extract_sql/test</text><path class="h" d="M29.058 0h1v2.171h-1z"/><text x="29.058" y="1.67" class="f"></text><path class="h" d="M30.06 0h10v2.171h-10z"/><text x="30.06" y="1.67" class="g"> master</text><text x="40.08" y="1.67" class="h"></text><text x="42.084" y="1.67" class="i">grun</text><text x="47.094" y="1.67" class="i">PlSql</text><text x="53.106" y="1.67" class="i">sql_script</text><text x="64.128" y="1.67" class="i">-gui</text></symbol><symbol id="3"><text y="1.67" class="i">s</text></symbol><symbol id="4"><text y="1.67" class="i">select</text></symbol><symbol id="5"><text y="1.67" class="i">select</text><text x="7.014" y="1.67" class="i">a</text></symbol><symbol id="6"><text y="1.67" class="i">select</text><text x="7.014" y="1.67" class="i">a</text><text x="9.018" y="1.67" class="i">from</text></symbol><symbol id="7"><text y="1.67" class="i">select</text><text x="7.014" y="1.67" class="i">a</text><text x="9.018" y="1.67" class="i">from</text><text x="14.028" y="1.67" class="i">b;</text></symbol><symbol id="8"><text y="1.67" class="i">^D</text></symbol><symbol id="a"><path fill="transparent" d="M0 0h98v41H0z"/></symbol><symbol id="b"><path fill="#6f7683" d="M0 0h1.102v2.171H0z"/></symbol></defs><path class="a" d="M0 0h98v86.84H0z"/><g style="animation-duration:15.058293s;animation-iteration-count:infinite;animation-name:l;animation-timing-function:steps(1,end)"><svg width="4410"><svg><use xlink:href="#a"/><use xlink:href="#b" x="-.004"/></svg><svg x="98"><use xlink:href="#a"/><use xlink:href="#b" x="-.004"/></svg><svg x="196"><use xlink:href="#a"/><use xlink:href="#b" x="-.004"/></svg><svg x="294"><use xlink:href="#a"/><use xlink:href="#b" x="41.996"/><use xlink:href="#1"/></svg><svg x="392"><use xlink:href="#a"/><use xlink:href="#b" x="41.996"/><use xlink:href="#1"/></svg><svg x="490"><use xlink:href="#a"/><use xlink:href="#b" x="41.996"/><use xlink:href="#1"/></svg><svg x="588"><use xlink:href="#a"/><use xlink:href="#b" x="42.996"/><path class="f" d="M0 0h29v2.171H0z"/><text y="1.67" class="g">~/analysis/extract_sql/test</text><path class="h" d="M29.058 0h1v2.171h-1z"/><text x="29.058" y="1.67" class="f"></text><path class="h" d="M30.06 0h10v2.171h-10z"/><text x="30.06" y="1.67" class="g"> master</text><text x="40.08" y="1.67" class="h"></text><text x="42.084" y="1.67" class="i">g</text></svg><svg x="686"><use xlink:href="#a"/><use xlink:href="#b" x="43.996"/><path class="f" d="M0 0h29v2.171H0z"/><text y="1.67" class="g">~/analysis/extract_sql/test</text><path class="h" d="M29.058 0h1v2.171h-1z"/><text x="29.058" y="1.67" class="f"></text><path class="h" d="M30.06 0h10v2.171h-10z"/><text x="30.06" y="1.67" class="g"> master</text><text x="40.08" y="1.67" class="h"></text><text x="42.084" y="1.67" class="i">gr</text></svg><svg x="784"><use xlink:href="#a"/><use xlink:href="#b" x="44.996"/><path class="f" d="M0 0h29v2.171H0z"/><text y="1.67" class="g">~/analysis/extract_sql/test</text><path class="h" d="M29.058 0h1v2.171h-1z"/><text x="29.058" y="1.67" class="f"></text><path class="h" d="M30.06 0h10v2.171h-10z"/><text x="30.06" y="1.67" class="g"> master</text><text x="40.08" y="1.67" class="h"></text><text x="42.084" y="1.67" class="i">gru</text></svg><svg x="882"><use xlink:href="#a"/><use xlink:href="#b" x="45.996"/><path class="f" d="M0 0h29v2.171H0z"/><text y="1.67" class="g">~/analysis/extract_sql/test</text><path class="h" d="M29.058 0h1v2.171h-1z"/><text x="29.058" y="1.67" class="f"></text><path class="h" d="M30.06 0h10v2.171h-10z"/><text x="30.06" y="1.67" class="g"> master</text><text x="40.08" y="1.67" class="h"></text><text x="42.084" y="1.67" class="i">grun</text></svg><svg x="980"><use xlink:href="#a"/><use xlink:href="#b" x="67.996"/><use xlink:href="#2"/></svg><svg x="1078"><use xlink:href="#a"/><use xlink:href="#b" x="-.004" y="2.146"/><use xlink:href="#2"/></svg><svg x="1176"><use xlink:href="#a"/><use xlink:href="#b" x="-.004" y="2.146"/><use xlink:href="#2"/></svg><svg x="1274"><use xlink:href="#a"/><use xlink:href="#b" x=".996" y="2.146"/><use xlink:href="#2"/><use xlink:href="#3" y="2.171"/></svg><svg x="1372"><use xlink:href="#a"/><use xlink:href="#b" x="1.996" y="2.146"/><use xlink:href="#2"/><text y="3.841" class="i">sl</text></svg><svg x="1470"><use xlink:href="#a"/><use xlink:href="#b" x=".996" y="2.146"/><use xlink:href="#2"/><use xlink:href="#3" y="2.171"/></svg><svg x="1568"><use xlink:href="#a"/><use xlink:href="#b" x="1.996" y="2.146"/><use xlink:href="#2"/><text y="3.841" class="i">se</text></svg><svg x="1666"><use xlink:href="#a"/><use xlink:href="#b" x="2.996" y="2.146"/><use xlink:href="#2"/><text y="3.841" class="i">sel</text></svg><svg x="1764"><use xlink:href="#a"/><use xlink:href="#b" x="3.996" y="2.146"/><use xlink:href="#2"/><text y="3.841" class="i">sele</text></svg><svg x="1862"><use xlink:href="#a"/><use xlink:href="#b" x="4.996" y="2.146"/><use xlink:href="#2"/><text y="3.841" class="i">selec</text></svg><svg x="1960"><use xlink:href="#a"/><use xlink:href="#b" x="5.996" y="2.146"/><use xlink:href="#2"/><use xlink:href="#4" y="2.171"/></svg><svg x="2058"><use xlink:href="#a"/><use xlink:href="#b" x="6.996" y="2.146"/><use xlink:href="#2"/><use xlink:href="#4" y="2.171"/></svg><svg x="2156"><use xlink:href="#a"/><use xlink:href="#b" x="7.996" y="2.146"/><use xlink:href="#2"/><use xlink:href="#5" y="2.171"/></svg><svg x="2254"><use xlink:href="#a"/><use xlink:href="#b" x="8.996" y="2.146"/><use xlink:href="#2"/><use xlink:href="#5" y="2.171"/></svg><svg x="2352"><use xlink:href="#a"/><use xlink:href="#b" x="9.996" y="2.146"/><use xlink:href="#2"/><text y="3.841" class="i">select</text><text x="7.014" y="3.841" class="i">a</text><text x="9.018" y="3.841" class="i">f</text></svg><svg x="2450"><use xlink:href="#a"/><use xlink:href="#b" x="10.996" y="2.146"/><use xlink:href="#2"/><text y="3.841" class="i">select</text><text x="7.014" y="3.841" class="i">a</text><text x="9.018" y="3.841" class="i">fr</text></svg><svg x="2548"><use xlink:href="#a"/><use xlink:href="#b" x="11.996" y="2.146"/><use xlink:href="#2"/><text y="3.841" class="i">select</text><text x="7.014" y="3.841" class="i">a</text><text x="9.018" y="3.841" class="i">fro</text></svg><svg x="2646"><use xlink:href="#a"/><use xlink:href="#b" x="12.996" y="2.146"/><use xlink:href="#2"/><use xlink:href="#6" y="2.171"/></svg><svg x="2744"><use xlink:href="#a"/><use xlink:href="#b" x="13.996" y="2.146"/><use xlink:href="#2"/><use xlink:href="#6" y="2.171"/></svg><svg x="2842"><use xlink:href="#a"/><use xlink:href="#b" x="14.996" y="2.146"/><use xlink:href="#2"/><text y="3.841" class="i">select</text><text x="7.014" y="3.841" class="i">a</text><text x="9.018" y="3.841" class="i">from</text><text x="14.028" y="3.841" class="i">b</text></svg><svg x="2940"><use xlink:href="#a"/><use xlink:href="#b" x="15.996" y="2.146"/><use xlink:href="#2"/><use xlink:href="#7" y="2.171"/></svg><svg x="3038"><use xlink:href="#a"/><use xlink:href="#b" x="-.004" y="4.317"/><use xlink:href="#2"/><use xlink:href="#7" y="2.171"/></svg><svg x="3136"><use xlink:href="#a"/><use xlink:href="#b" x="-.004" y="4.317"/><use xlink:href="#2"/><use xlink:href="#7" y="2.171"/><use xlink:href="#8" y="4.342"/></svg><svg x="3234"><use xlink:href="#a"/><use xlink:href="#b" x="-.004" y="6.488"/><use xlink:href="#2"/><use xlink:href="#7" y="2.171"/><use xlink:href="#8" y="4.342"/></svg><svg x="3332"><use xlink:href="#a"/><use xlink:href="#b" x="-.004" y="6.488"/><use xlink:href="#2"/><use xlink:href="#7" y="2.171"/><use xlink:href="#8" y="4.342"/></svg><svg x="3430"><use xlink:href="#a"/><use xlink:href="#b" x="-.004" y="6.488"/><use xlink:href="#2"/><use xlink:href="#7" y="2.171"/><use xlink:href="#8" y="4.342"/></svg><svg x="3528"><use xlink:href="#a"/><use xlink:href="#b" x="41.996" y="6.488"/><use xlink:href="#2"/><use xlink:href="#7" y="2.171"/><use xlink:href="#8" y="4.342"/><use xlink:href="#1" y="6.513"/></svg><svg x="3626"><use xlink:href="#a"/><use xlink:href="#b" x="41.996" y="6.488"/><use xlink:href="#2"/><use xlink:href="#7" y="2.171"/><use xlink:href="#8" y="4.342"/><use xlink:href="#1" y="6.513"/></svg><svg x="3724"><use xlink:href="#a"/><use xlink:href="#b" x="-.004" y="8.659"/><use xlink:href="#2"/><use xlink:href="#7" y="2.171"/><use xlink:href="#8" y="4.342"/><use xlink:href="#1" y="6.513"/></svg><svg x="3822"><use xlink:href="#a"/><use xlink:href="#b" x="-.004" y="8.659"/><use xlink:href="#2"/><use xlink:href="#7" y="2.171"/><use xlink:href="#8" y="4.342"/><use xlink:href="#1" y="6.513"/></svg><svg x="3920"><use xlink:href="#a"/><use xlink:href="#b" x="-.004" y="8.659"/><use xlink:href="#2"/><use xlink:href="#7" y="2.171"/><use xlink:href="#8" y="4.342"/><use xlink:href="#1" y="6.513"/></svg><svg x="4018"><use xlink:href="#a"/><use xlink:href="#b" x="41.996" y="8.659"/><use xlink:href="#2"/><use xlink:href="#7" y="2.171"/><use xlink:href="#8" y="4.342"/><use xlink:href="#1" y="6.513"/><use xlink:href="#1" y="8.684"/></svg><svg x="4116"><use xlink:href="#a"/><use xlink:href="#b" x="41.996" y="8.659"/><use xlink:href="#2"/><use xlink:href="#7" y="2.171"/><use xlink:href="#8" y="4.342"/><use xlink:href="#1" y="6.513"/><use xlink:href="#1" y="8.684"/></svg><svg x="4214"><use xlink:href="#a"/><use xlink:href="#b" x="41.996" y="8.659"/><use xlink:href="#2"/><use xlink:href="#7" y="2.171"/><use xlink:href="#8" y="4.342"/><use xlink:href="#1" y="6.513"/><use xlink:href="#1" y="8.684"/></svg><svg x="4312"><use xlink:href="#a"/><use xlink:href="#b" x="-.004" y="10.83"/><use xlink:href="#2"/><use xlink:href="#7" y="2.171"/><use xlink:href="#8" y="4.342"/><use xlink:href="#1" y="6.513"/><use xlink:href="#1" y="8.684"/></svg></svg></g></g></svg></svg>